<svg width="1024" height="1024" viewBox="0 0 1024 1024" fill="none" xmlns="http://www.w3.org/2000/svg">
<g clip-path="url(#clip0_1_2)">
<path d="M0 0H1024V1024H0V0Z" fill="white"/>
<path d="M508.255 519.966C512.828 519.221 521.223 517.215 525.329 518.726C526.167 520.16 525.848 520.057 525.754 522.058C523.51 560.978 530.744 599.861 546.836 635.368C595.714 744.041 694.219 790.942 802.172 824.804C808.82 826.89 816.757 828.794 823.106 831.247L823.608 831.446L707.782 862.592C685.98 868.392 660.018 875.998 638.173 880.456C607.478 870.136 571.437 846.751 546.833 826.222C499.243 786.516 464.028 733.803 460.169 670.472C457.277 623.013 471.443 574.786 495.511 533.934C498.329 529.151 502.315 520.097 508.255 519.966Z" fill="#14CABE"/>
<path d="M583.888 882.186C542.917 881.971 511.124 876.82 473.963 857.494C436.005 837.752 406.056 807.523 386.904 769.135C382.679 760.668 377.709 746.255 374.909 737.078C361.569 692.718 366.507 644.866 388.625 604.166C405.84 572.044 436.224 542.03 471.613 531.351L466.193 541.056C434.678 598.523 425.611 658.461 444.771 721.299C457.112 766.809 481.458 798.541 515.192 830.322C539.47 853.194 551.7 862.528 581.333 878.733C582.305 879.135 586.746 880.901 587.15 881.703C587.098 882.365 584.223 882.18 583.888 882.186Z" fill="#2748F6"/>
<path d="M581.333 878.733C582.305 879.135 586.746 880.901 587.15 881.703C587.098 882.365 584.223 882.18 583.888 882.186C583.029 881.028 582.172 879.909 581.333 878.733Z" fill="#315FE0"/>
<path d="M574.965 625.583C600.235 649.633 637.229 659.248 671.323 657.878C736.152 655.272 807.172 620.242 864.93 592.324C857.611 604.825 849.437 617.368 841.753 629.685L804.649 689.318C786.241 718.765 767.938 750.156 748.783 778.968C730.131 771.468 711.895 763.841 694.398 753.813C643.333 724.545 597.593 686.883 574.099 631.505C573.748 630.678 573.403 629.849 573.061 629.018C573.275 627.547 573.502 627.551 574.505 626.304L574.965 625.583Z" fill="#14CABE"/>
<path d="M175.424 247.731C184.21 255.365 194.91 266.669 203.35 275.051C219.665 291.031 235.846 307.148 251.89 323.401L363.344 433.648C346.604 443.008 334.268 450.674 322.036 466.235L321.479 466.523C319.186 465.944 273.611 419.688 268.919 415.029L134.939 282.241C155.836 276.32 166.724 267.476 175.424 247.731Z" fill="#2748F6"/>
<path d="M355.894 628.146C353.376 605.694 350.139 580.753 333.161 564.562C314.054 546.34 313.101 528.492 324.239 504.514C335.963 479.272 361.146 457.319 387.642 448.078C404.676 442.137 426.128 442.141 437.958 457.992C442.987 464.577 448.441 473.162 454.531 478.442C465.89 488.29 482.549 497.58 495.988 504.201C496.629 504.387 497.268 504.523 497.658 505.072C497.657 505.943 493.34 505.604 492.704 505.531C453.76 507.873 417.441 525.943 392.085 555.594C374.28 575.72 362.419 600.399 357.828 626.876L355.894 628.146Z" fill="#2748F6"/>
<path d="M495.988 504.201C496.629 504.387 497.268 504.523 497.658 505.072C497.657 505.943 493.34 505.604 492.704 505.531C494.116 504.143 493.688 505.719 495.988 504.201Z" fill="#315FE0"/>
<path d="M812.124 518.4C812.716 520.496 787.717 590.939 784.473 600.154C778.322 604.208 769.224 607.948 762.419 610.969C697.348 639.865 604.389 643.38 559.679 577.576C552.462 566.031 553.174 555.634 552.868 542.202C555.908 546.284 560.233 550.831 564.068 554.147C595.001 580.897 633.102 592.034 673.423 589.715C728.249 586.561 776.069 558.637 812.124 518.4Z" fill="#2748F6"/>
<path d="M429.322 367.083C447.52 377.032 470.567 388.161 487.751 398.388C488.257 418.822 487.405 440.383 487.73 461.193C485.923 461.181 434.675 433.793 429.529 430.7C428.897 410.182 429.616 387.933 429.322 367.083Z" fill="#14CABE"/>
<path d="M757.182 467.975L757.53 468.111C758.406 469.669 757.987 525.196 757.746 530.72C754.94 533.003 747.857 536.844 744.516 538.698C730.222 546.626 715.314 553.566 700.893 561.272C700.651 561.021 700.408 560.769 700.166 560.518C699.935 547.567 700.106 508.893 700.139 498.527C702.694 496.929 705.28 495.434 707.954 494.047C724.387 485.526 740.545 476.065 757.182 467.975Z" fill="#14CABE"/>
<path d="M629.074 468.353C635.662 471.299 644.664 476.376 651.197 479.816C663.002 485.953 674.755 492.188 686.456 498.521C686.239 519.855 686.462 541.626 686.474 562.994C672.294 555.881 658.385 547.993 644.283 540.77C639.709 538.427 629.844 534.111 629.675 528.675C629.056 508.672 629.883 488.346 629.074 468.353Z" fill="#14CABE"/>
<path d="M692.499 424.408C697.498 426.346 709.587 433.206 715.058 436.125L751.174 455.103C741.762 460.823 731.756 465.853 721.963 470.932C712.577 475.8 702.882 481.073 693.364 485.59C690.272 485.177 639.537 457.854 634.985 454.793C637.489 453.18 640 451.85 642.634 450.479C659.24 441.837 676.147 433.518 692.499 424.408Z" fill="#14CABE"/>
<path d="M491.613 325.457C495.049 324.833 509.519 333.476 513.123 335.378C525.744 342.037 539.112 348.391 550.968 356.339C548.456 357.803 545.638 359.15 543.042 360.491C527.01 368.77 511.268 377.756 495.139 385.83C493.898 386.29 492.642 385.956 491.541 385.341C473.229 375.129 454.007 365.944 435.788 355.636C441.275 351.962 450.636 347.238 456.735 343.956C468.296 337.668 479.923 331.501 491.613 325.457Z" fill="#14CABE"/>
<path d="M556.571 367.486C556.623 367.534 556.685 367.574 556.726 367.631C557.852 369.208 557.507 423.394 557.522 430.903C551.614 434.827 543.244 438.943 536.84 442.334C525.422 448.32 514.055 454.401 502.739 460.576L501.975 460.43C501.152 459.034 501.414 403.267 501.405 397.181C519.956 387.588 538.347 377.688 556.571 367.486Z" fill="#14CABE"/>
<path d="M119.597 196.302C137.989 194.651 154.22 208.263 155.797 226.662C157.374 245.06 143.696 261.236 125.291 262.739C106.992 264.233 90.9279 250.65 89.3599 232.356C87.792 214.062 101.31 197.944 119.597 196.302Z" fill="#2748F6"/>
<path d="M718.071 171.81C728.203 176.994 738.303 182.241 748.37 187.551C756.221 191.679 764.539 195.871 771.992 200.627L772.005 260.053C754.428 250.349 735.861 241.254 718.56 231.281C717.535 213.059 718.073 190.368 718.071 171.81Z" fill="#14CABE"/>
<path d="M777.311 132.459C779.748 132.341 825.026 158.215 830.826 161.548C814.523 171.104 794.563 179.801 778.82 189.904C763.072 183.041 739.536 169.468 723.834 160.973C731.172 156.583 739.335 152.644 746.951 148.649L777.311 132.459Z" fill="#14CABE"/>
<path d="M837.499 173.451C838.68 174.657 838.003 189.675 837.966 192.714C837.874 205.45 837.868 218.187 837.946 230.924C834.111 233.584 788.149 258.228 785.068 258.836C784.328 254.429 784.705 245.328 784.675 240.585C784.596 227.847 785.129 214.87 784.672 202.149C791.015 198.033 799.628 193.816 806.477 190.23C816.911 184.811 827.253 179.217 837.499 173.451Z" fill="#14CABE"/>
<path d="M494.497 175.703C507.307 183.531 525.556 192.617 539.146 199.532L539.011 249.319C536.968 248.298 534.749 247.046 532.744 245.915C520.159 238.817 507.025 232.584 494.492 225.42L494.497 175.703Z" fill="#14CABE"/>
<path d="M593.658 176.397C594.141 176.527 593.809 176.41 594.546 176.969L594.664 225.563C582.114 233.257 565.084 241.716 551.762 248.985C551.497 248.956 551.318 248.689 551.11 248.522L550.807 199.049C563.302 193.266 581.845 183.335 593.658 176.397Z" fill="#14CABE"/>
<path d="M543.549 142.055C555.767 148.31 577.9 159.376 588.844 166.507C575.631 174.066 558.416 182.591 544.735 189.519C541.719 189.623 504.473 169.039 499.126 166.028C508.493 160.461 518.698 155.687 528.174 150.238C533.097 147.407 538.473 144.577 543.549 142.055Z" fill="#14CABE"/>
<path d="M738.202 348.418C752.381 356.139 766.608 363.769 780.884 371.309C780.794 381.849 781.015 392.456 780.972 402.991C780.952 407.867 781.219 414.235 780.851 418.986C768.413 411.879 751.286 403.277 738.43 396.891C738.374 381.181 737.839 363.997 738.202 348.418Z" fill="#14CABE"/>
<path d="M833.874 348.393C834.735 351.486 834.176 389.811 834.195 396.419C821.789 404.119 806.073 411.694 793.086 419.02L792.789 418.725C791.626 414.563 792.449 378.685 792.454 371.44C805.027 363.093 820.601 356.425 833.874 348.393Z" fill="#14CABE"/>
<path d="M692.559 300.881L693.017 300.969C693.165 301.147 693.313 301.326 693.46 301.504C693.099 314.103 693.263 336.533 693.577 348.222C680.35 355.633 666.122 362.082 652.728 369.926L652.34 369.938C651.097 368.312 651.789 329.836 651.71 323.448C665.302 315.773 679.038 308.606 692.559 300.881Z" fill="#14CABE"/>
<path d="M597.766 301.375C609.073 307.288 630.174 317.4 640.185 324.319C640.447 338.371 640.586 355.424 640.198 369.375C626.283 362.65 611.428 354.473 597.715 347.136C597.898 331.883 597.915 316.629 597.766 301.375Z" fill="#14CABE"/>
<path d="M784.663 316.378C787.232 316.793 823.374 336.097 828.777 339.001C818.677 345.479 798.032 355.498 787.076 361.069C773.764 355.336 756.636 345.445 743.246 338.684C754.83 331.421 772.078 323.19 784.663 316.378Z" fill="#14CABE"/>
<path d="M645.874 268.899C649.663 270.071 663.486 278.135 667.943 280.563C673.636 283.666 682.932 288.185 688.161 291.469C677.888 297.582 657.094 307.888 646.139 313.089C642.63 312.494 608.224 294.248 603.385 291.599C614.875 284.495 633.694 275.29 645.874 268.899Z" fill="#14CABE"/>
<path d="M569.322 618.913C571.279 621.082 573.012 623.343 574.965 625.583L574.505 626.304C573.502 627.551 573.275 627.547 573.061 629.018C571.538 625.989 570.382 622.121 569.322 618.913Z" fill="#2FC2C6"/>
<path d="M355.894 628.146L357.828 626.876L357.285 631.933L355.861 631.962C355.903 630.642 355.896 629.469 355.894 628.146Z" fill="#4A84E7"/>
<path d="M355.861 631.962L357.285 631.933C356.713 633.811 356.301 634.303 355.861 631.962Z" fill="#7AA5DD"/>
</g>
<defs>
<clipPath id="clip0_1_2">
<rect width="1024" height="1024" rx="200" fill="white"/>
</clipPath>
</defs>
</svg>
